<mxfile host="app.diagrams.net" agent="Mozilla/5.0 (Macintosh; Intel Mac OS X 10_15_7) AppleWebKit/537.36 (KHTML, like Gecko) Chrome/135.0.0.0 Safari/537.36" version="26.1.3">
  <diagram name="Page-1" id="CJNvdbnC-WFA5yAV2EWq">
    <mxGraphModel dx="1728" dy="963" grid="1" gridSize="10" guides="1" tooltips="1" connect="1" arrows="1" fold="1" page="1" pageScale="1" pageWidth="1169" pageHeight="827" math="0" shadow="0">
      <root>
        <mxCell id="0" />
        <mxCell id="1" parent="0" />
        <mxCell id="ytOcAr_8bvukeLFTffMP-6" value="" style="ellipse;shape=cloud;whiteSpace=wrap;html=1;" vertex="1" parent="1">
          <mxGeometry x="90" y="120" width="400" height="270" as="geometry" />
        </mxCell>
        <mxCell id="ytOcAr_8bvukeLFTffMP-21" style="edgeStyle=orthogonalEdgeStyle;rounded=0;orthogonalLoop=1;jettySize=auto;html=1;endArrow=diamondThin;endFill=1;" edge="1" parent="1" source="ytOcAr_8bvukeLFTffMP-1" target="ytOcAr_8bvukeLFTffMP-19">
          <mxGeometry relative="1" as="geometry" />
        </mxCell>
        <mxCell id="ytOcAr_8bvukeLFTffMP-1" value="Commit" style="swimlane;fontStyle=0;childLayout=stackLayout;horizontal=1;startSize=26;fillColor=none;horizontalStack=0;resizeParent=1;resizeParentMax=0;resizeLast=0;collapsible=1;marginBottom=0;whiteSpace=wrap;html=1;" vertex="1" parent="1">
          <mxGeometry x="330" y="590" width="140" height="90" as="geometry">
            <mxRectangle x="120" y="110" width="100" height="30" as="alternateBounds" />
          </mxGeometry>
        </mxCell>
        <mxCell id="ytOcAr_8bvukeLFTffMP-2" value="+ message: string" style="text;strokeColor=none;fillColor=none;align=left;verticalAlign=top;spacingLeft=4;spacingRight=4;overflow=hidden;rotatable=0;points=[[0,0.5],[1,0.5]];portConstraint=eastwest;whiteSpace=wrap;html=1;" vertex="1" parent="ytOcAr_8bvukeLFTffMP-1">
          <mxGeometry y="26" width="140" height="26" as="geometry" />
        </mxCell>
        <mxCell id="ytOcAr_8bvukeLFTffMP-3" value="+ hash: string&lt;div&gt;+ base : ?Commit&lt;/div&gt;" style="text;strokeColor=none;fillColor=none;align=left;verticalAlign=top;spacingLeft=4;spacingRight=4;overflow=hidden;rotatable=0;points=[[0,0.5],[1,0.5]];portConstraint=eastwest;whiteSpace=wrap;html=1;" vertex="1" parent="ytOcAr_8bvukeLFTffMP-1">
          <mxGeometry y="52" width="140" height="38" as="geometry" />
        </mxCell>
        <mxCell id="ytOcAr_8bvukeLFTffMP-5" value="&quot;remote&quot;&lt;br&gt;&lt;div&gt;Repository&lt;/div&gt;" style="rounded=0;whiteSpace=wrap;html=1;" vertex="1" parent="1">
          <mxGeometry x="240" y="230" width="120" height="60" as="geometry" />
        </mxCell>
        <mxCell id="ytOcAr_8bvukeLFTffMP-8" style="edgeStyle=orthogonalEdgeStyle;rounded=0;orthogonalLoop=1;jettySize=auto;html=1;" edge="1" parent="1" source="ytOcAr_8bvukeLFTffMP-7" target="ytOcAr_8bvukeLFTffMP-5">
          <mxGeometry relative="1" as="geometry" />
        </mxCell>
        <mxCell id="ytOcAr_8bvukeLFTffMP-9" value="clone" style="edgeLabel;html=1;align=center;verticalAlign=middle;resizable=0;points=[];" vertex="1" connectable="0" parent="ytOcAr_8bvukeLFTffMP-8">
          <mxGeometry x="-0.1135" y="-1" relative="1" as="geometry">
            <mxPoint x="-16" y="-9" as="offset" />
          </mxGeometry>
        </mxCell>
        <mxCell id="ytOcAr_8bvukeLFTffMP-12" style="edgeStyle=orthogonalEdgeStyle;rounded=0;orthogonalLoop=1;jettySize=auto;html=1;endArrow=diamondThin;endFill=1;" edge="1" parent="1" source="ytOcAr_8bvukeLFTffMP-7" target="ytOcAr_8bvukeLFTffMP-11">
          <mxGeometry relative="1" as="geometry">
            <Array as="points">
              <mxPoint x="790" y="320" />
              <mxPoint x="670" y="320" />
            </Array>
          </mxGeometry>
        </mxCell>
        <mxCell id="ytOcAr_8bvukeLFTffMP-13" style="edgeStyle=orthogonalEdgeStyle;rounded=0;orthogonalLoop=1;jettySize=auto;html=1;endArrow=diamondThin;endFill=1;entryX=0.5;entryY=0;entryDx=0;entryDy=0;" edge="1" parent="1" target="ytOcAr_8bvukeLFTffMP-10">
          <mxGeometry relative="1" as="geometry">
            <mxPoint x="790" y="300" as="sourcePoint" />
            <mxPoint x="900" y="350" as="targetPoint" />
            <Array as="points">
              <mxPoint x="790" y="320" />
              <mxPoint x="900" y="320" />
            </Array>
          </mxGeometry>
        </mxCell>
        <mxCell id="ytOcAr_8bvukeLFTffMP-7" value="Workspace" style="rounded=0;whiteSpace=wrap;html=1;" vertex="1" parent="1">
          <mxGeometry x="730" y="230" width="120" height="60" as="geometry" />
        </mxCell>
        <mxCell id="ytOcAr_8bvukeLFTffMP-37" style="edgeStyle=orthogonalEdgeStyle;rounded=0;orthogonalLoop=1;jettySize=auto;html=1;" edge="1" parent="1" source="ytOcAr_8bvukeLFTffMP-10" target="ytOcAr_8bvukeLFTffMP-32">
          <mxGeometry relative="1" as="geometry">
            <Array as="points">
              <mxPoint x="900" y="430" />
              <mxPoint x="570" y="430" />
            </Array>
          </mxGeometry>
        </mxCell>
        <mxCell id="ytOcAr_8bvukeLFTffMP-38" value="Affiche le HEAD" style="edgeLabel;html=1;align=center;verticalAlign=middle;resizable=0;points=[];" connectable="0" vertex="1" parent="ytOcAr_8bvukeLFTffMP-37">
          <mxGeometry x="-0.1393" relative="1" as="geometry">
            <mxPoint x="-2" y="10" as="offset" />
          </mxGeometry>
        </mxCell>
        <mxCell id="ytOcAr_8bvukeLFTffMP-10" value="Dossier" style="rounded=0;whiteSpace=wrap;html=1;" vertex="1" parent="1">
          <mxGeometry x="840" y="340" width="120" height="60" as="geometry" />
        </mxCell>
        <mxCell id="ytOcAr_8bvukeLFTffMP-22" style="edgeStyle=orthogonalEdgeStyle;rounded=0;orthogonalLoop=1;jettySize=auto;html=1;" edge="1" parent="1" source="ytOcAr_8bvukeLFTffMP-11" target="ytOcAr_8bvukeLFTffMP-1">
          <mxGeometry relative="1" as="geometry" />
        </mxCell>
        <mxCell id="ytOcAr_8bvukeLFTffMP-23" value="Référence" style="edgeLabel;html=1;align=center;verticalAlign=middle;resizable=0;points=[];" connectable="0" vertex="1" parent="ytOcAr_8bvukeLFTffMP-22">
          <mxGeometry x="-0.3194" y="-1" relative="1" as="geometry">
            <mxPoint x="-33" y="11" as="offset" />
          </mxGeometry>
        </mxCell>
        <mxCell id="ytOcAr_8bvukeLFTffMP-24" value="*" style="edgeLabel;html=1;align=center;verticalAlign=middle;resizable=0;points=[];fontSize=23;" connectable="0" vertex="1" parent="ytOcAr_8bvukeLFTffMP-22">
          <mxGeometry x="0.7961" y="2" relative="1" as="geometry">
            <mxPoint x="7" y="27" as="offset" />
          </mxGeometry>
        </mxCell>
        <mxCell id="ytOcAr_8bvukeLFTffMP-11" value="&quot;local&quot;&lt;br&gt;Repository" style="rounded=0;whiteSpace=wrap;html=1;" vertex="1" parent="1">
          <mxGeometry x="610" y="340" width="120" height="60" as="geometry" />
        </mxCell>
        <mxCell id="ytOcAr_8bvukeLFTffMP-14" value="" style="sketch=0;outlineConnect=0;fontColor=#232F3E;gradientColor=none;fillColor=#232F3D;strokeColor=none;dashed=0;verticalLabelPosition=bottom;verticalAlign=top;align=center;html=1;fontSize=12;fontStyle=0;aspect=fixed;pointerEvents=1;shape=mxgraph.aws4.folder;" vertex="1" parent="1">
          <mxGeometry x="772" y="480" width="78" height="71" as="geometry" />
        </mxCell>
        <mxCell id="ytOcAr_8bvukeLFTffMP-16" value="&lt;div&gt;&amp;nbsp; &amp;nbsp; public function buildVatPrice(TvaRating $rating) : TaxedPrice&lt;/div&gt;&lt;div&gt;&amp;nbsp; &amp;nbsp; {&lt;/div&gt;&lt;div&gt;&amp;nbsp; &amp;nbsp; &amp;nbsp; &amp;nbsp; return new TaxedPrice(&lt;/div&gt;&lt;div&gt;&amp;nbsp; &amp;nbsp; &amp;nbsp; &amp;nbsp; &amp;nbsp; &amp;nbsp; $this-&amp;gt;price,&lt;/div&gt;&lt;div&gt;&amp;nbsp; &amp;nbsp; &amp;nbsp; &amp;nbsp; &amp;nbsp; &amp;nbsp; $rating&lt;/div&gt;&lt;div&gt;&amp;nbsp; &amp;nbsp; &amp;nbsp; &amp;nbsp; );&lt;/div&gt;&lt;div&gt;&amp;nbsp; &amp;nbsp; }&lt;/div&gt;" style="text;html=1;align=left;verticalAlign=middle;whiteSpace=wrap;rounded=0;" vertex="1" parent="1">
          <mxGeometry x="870" y="460" width="430" height="130" as="geometry" />
        </mxCell>
        <mxCell id="ytOcAr_8bvukeLFTffMP-17" value="&lt;div&gt;&amp;nbsp; &amp;nbsp; public function buildVatPrice(TvaRating $rating) : TaxedPrice&lt;/div&gt;&lt;div&gt;&amp;nbsp; &amp;nbsp; {&lt;/div&gt;&lt;div&gt;&amp;nbsp; &amp;nbsp; &amp;nbsp; &amp;nbsp; &amp;nbsp;return new TaxedPrice(&lt;/div&gt;&lt;div&gt;&amp;nbsp; &amp;nbsp; &amp;nbsp; &amp;nbsp; &amp;nbsp; &amp;nbsp; &amp;nbsp;$this-&amp;gt;price,&lt;/div&gt;&lt;div&gt;&amp;nbsp; &amp;nbsp; &amp;nbsp; &amp;nbsp; &amp;nbsp; &amp;nbsp; &amp;nbsp;$rating&lt;/div&gt;&lt;div&gt;&amp;nbsp; &amp;nbsp; &amp;nbsp; &amp;nbsp; &amp;nbsp;);&lt;/div&gt;&lt;div&gt;&amp;nbsp; &amp;nbsp; }&lt;/div&gt;" style="text;html=1;align=left;verticalAlign=middle;whiteSpace=wrap;rounded=0;" vertex="1" parent="1">
          <mxGeometry x="870" y="610" width="430" height="130" as="geometry" />
        </mxCell>
        <mxCell id="ytOcAr_8bvukeLFTffMP-18" value="" style="curved=1;endArrow=classic;html=1;rounded=0;entryX=0;entryY=0.5;entryDx=0;entryDy=0;" edge="1" parent="1" source="ytOcAr_8bvukeLFTffMP-16" target="ytOcAr_8bvukeLFTffMP-17">
          <mxGeometry width="50" height="50" relative="1" as="geometry">
            <mxPoint x="860" y="630" as="sourcePoint" />
            <mxPoint x="910" y="580" as="targetPoint" />
            <Array as="points">
              <mxPoint x="940" y="600" />
              <mxPoint x="850" y="590" />
              <mxPoint x="800" y="590" />
              <mxPoint x="780" y="600" />
              <mxPoint x="780" y="640" />
              <mxPoint x="800" y="670" />
            </Array>
          </mxGeometry>
        </mxCell>
        <mxCell id="ytOcAr_8bvukeLFTffMP-19" value="Diff / Delta&lt;div&gt;- ......&lt;br&gt;+ ......&lt;/div&gt;" style="rounded=0;whiteSpace=wrap;html=1;align=left;" vertex="1" parent="1">
          <mxGeometry x="610" y="600" width="120" height="60" as="geometry" />
        </mxCell>
        <mxCell id="ytOcAr_8bvukeLFTffMP-25" style="edgeStyle=orthogonalEdgeStyle;rounded=0;orthogonalLoop=1;jettySize=auto;html=1;exitX=0;exitY=0.25;exitDx=0;exitDy=0;" edge="1" parent="1" source="ytOcAr_8bvukeLFTffMP-1" target="ytOcAr_8bvukeLFTffMP-1">
          <mxGeometry relative="1" as="geometry">
            <mxPoint x="245" y="658" as="sourcePoint" />
            <mxPoint x="315" y="667.9839999999999" as="targetPoint" />
            <Array as="points">
              <mxPoint x="330" y="610" />
              <mxPoint x="240" y="610" />
              <mxPoint x="240" y="640" />
              <mxPoint x="315" y="640" />
              <mxPoint x="315" y="629" />
            </Array>
          </mxGeometry>
        </mxCell>
        <mxCell id="ytOcAr_8bvukeLFTffMP-26" value="est_base_de" style="edgeLabel;html=1;align=center;verticalAlign=middle;resizable=0;points=[];" connectable="0" vertex="1" parent="ytOcAr_8bvukeLFTffMP-25">
          <mxGeometry x="0.1732" y="1" relative="1" as="geometry">
            <mxPoint x="-20" y="-39" as="offset" />
          </mxGeometry>
        </mxCell>
        <mxCell id="ytOcAr_8bvukeLFTffMP-36" style="edgeStyle=orthogonalEdgeStyle;rounded=0;orthogonalLoop=1;jettySize=auto;html=1;entryX=0.75;entryY=0;entryDx=0;entryDy=0;" edge="1" parent="1" source="ytOcAr_8bvukeLFTffMP-32" target="ytOcAr_8bvukeLFTffMP-1">
          <mxGeometry relative="1" as="geometry" />
        </mxCell>
        <mxCell id="ytOcAr_8bvukeLFTffMP-32" value="Alias" style="swimlane;fontStyle=0;childLayout=stackLayout;horizontal=1;startSize=26;fillColor=none;horizontalStack=0;resizeParent=1;resizeParentMax=0;resizeLast=0;collapsible=1;marginBottom=0;whiteSpace=wrap;html=1;" vertex="1" parent="1">
          <mxGeometry x="500" y="460" width="140" height="78" as="geometry" />
        </mxCell>
        <mxCell id="ytOcAr_8bvukeLFTffMP-33" value="+ nom: string" style="text;strokeColor=none;fillColor=none;align=left;verticalAlign=top;spacingLeft=4;spacingRight=4;overflow=hidden;rotatable=0;points=[[0,0.5],[1,0.5]];portConstraint=eastwest;whiteSpace=wrap;html=1;" vertex="1" parent="ytOcAr_8bvukeLFTffMP-32">
          <mxGeometry y="26" width="140" height="26" as="geometry" />
        </mxCell>
        <mxCell id="ytOcAr_8bvukeLFTffMP-35" value="+ type: [&quot;tag&quot;, &quot;branch&quot;]" style="text;strokeColor=none;fillColor=none;align=left;verticalAlign=top;spacingLeft=4;spacingRight=4;overflow=hidden;rotatable=0;points=[[0,0.5],[1,0.5]];portConstraint=eastwest;whiteSpace=wrap;html=1;" vertex="1" parent="ytOcAr_8bvukeLFTffMP-32">
          <mxGeometry y="52" width="140" height="26" as="geometry" />
        </mxCell>
      </root>
    </mxGraphModel>
  </diagram>
</mxfile>
